<svg xmlns="http://www.w3.org/2000/svg" width="24" height="40" viewBox="0 0 24 40" fill="none">
  <path d="M20.6349 0H3.36508C2.53647 0.000504771 1.74195 0.329936 1.1561 0.91591C0.570241 1.50189 0.240971 2.29647 0.240635 3.12508V36.8749C0.240971 37.7036 0.570328 38.4983 1.15632 39.0843C1.74231 39.6703 2.53699 39.9997 3.36571 40H20.6343C21.463 39.9997 22.2577 39.6703 22.8437 39.0843C23.4297 38.4983 23.759 37.7036 23.7594 36.8749V3.12508C23.759 2.29636 23.4297 1.50168 22.8437 0.915686C22.2577 0.329693 21.4636 0.000336536 20.6349 0ZM12.1968 2.74984H14.3219C14.6654 2.74984 14.9467 3.02476 14.9467 3.37524C14.9462 3.54078 14.8802 3.6994 14.7631 3.81646C14.6461 3.93351 14.4874 3.9995 14.3219 4H12.1968C12.1147 4.00025 12.0334 3.98426 11.9574 3.95296C11.8815 3.92165 11.8126 3.87564 11.7545 3.81757C11.6964 3.75951 11.6504 3.69053 11.6191 3.61462C11.5878 3.53871 11.5718 3.45735 11.5721 3.37524C11.5721 3.02476 11.847 2.74984 12.1968 2.74984ZM9.6781 2.74984H9.89714C10.2463 2.74984 10.5219 3.02476 10.5219 3.37524C10.5222 3.45735 10.5062 3.53871 10.4749 3.61462C10.4436 3.69053 10.3975 3.75951 10.3395 3.81757C10.2814 3.87564 10.2124 3.92165 10.1365 3.95296C10.0606 3.98426 9.97926 4.00025 9.89714 4H9.6781C9.51255 3.9995 9.35393 3.93351 9.23688 3.81646C9.11982 3.6994 9.05384 3.54078 9.05333 3.37524C9.05333 3.02476 9.3346 2.74984 9.6781 2.74984ZM13.0654 37.2622H10.9346C10.7689 37.2619 10.6102 37.196 10.493 37.0789C10.3758 36.9618 10.3097 36.8031 10.3092 36.6375C10.3089 36.5553 10.3248 36.4738 10.3561 36.3978C10.3875 36.3218 10.4335 36.2528 10.4917 36.1947C10.5498 36.1366 10.6189 36.0906 10.6949 36.0594C10.771 36.0281 10.8524 36.0123 10.9346 36.0127H13.0654C13.4095 36.0127 13.6908 36.2876 13.6908 36.6375C13.6903 36.8031 13.6242 36.9618 13.507 37.0789C13.3898 37.196 13.2311 37.2619 13.0654 37.2622ZM21.8438 33.2622H2.15619V6.73778H21.8438V33.2622Z" fill="#001F3F"/>
  <path d="M10.8089 31.8997H13.1911C13.6248 31.8997 13.9759 31.5251 13.9759 31.0623V28.5061C13.9759 28.0439 13.6248 27.6686 13.1911 27.6686H10.8089C10.3752 27.6686 10.0241 28.0432 10.0241 28.5067V31.0623C10.0241 31.5251 10.3752 31.8997 10.8089 31.8997ZM4.71492 25.6997H7.09714C7.53016 25.6997 7.88191 25.3188 7.88191 24.8566V22.3061C7.88191 21.8439 7.53016 21.4686 7.09714 21.4686H4.71492C4.28127 21.4686 3.92445 21.8432 3.92445 22.3067V24.8566C3.92445 25.3188 4.28127 25.6997 4.71492 25.6997ZM16.9029 25.6997H19.2851C19.7187 25.6997 20.0756 25.3188 20.0756 24.8566V22.3061C20.0756 21.8439 19.7187 21.4686 19.2851 21.4686H16.9029C16.4698 21.4686 16.1181 21.8432 16.1181 22.3067V24.8566C16.1181 25.3188 16.4698 25.6997 16.9029 25.6997ZM16.9029 31.8997H19.2851C19.7187 31.8997 20.0756 31.5251 20.0756 31.0623V28.5061C20.0756 28.0439 19.7187 27.6686 19.2851 27.6686H16.9029C16.4698 27.6686 16.1181 28.0432 16.1181 28.5067V31.0623C16.1181 31.5251 16.4698 31.8997 16.9029 31.8997ZM4.71492 31.8997H7.09714C7.53016 31.8997 7.88191 31.5251 7.88191 31.0623V28.5061C7.88191 28.0439 7.53016 27.6686 7.09714 27.6686H4.71492C4.28127 27.6686 3.92445 28.0432 3.92445 28.5067V31.0623C3.92445 31.5251 4.28127 31.8997 4.71492 31.8997ZM10.8089 25.6997H13.1911C13.6248 25.6997 13.9759 25.3188 13.9759 24.8566V22.3061C13.9759 21.8439 13.6248 21.4686 13.1911 21.4686H10.8089C10.3752 21.4686 10.0241 21.8432 10.0241 22.3067V24.8566C10.0241 25.3188 10.3752 25.6997 10.8089 25.6997Z" fill="#001F3F"/>
</svg>