<svg xmlns="http://www.w3.org/2000/svg" width="40" height="35" viewBox="0 0 40 35" fill="none">
  <path d="M7.24764 2.85633C7.24773 2.80067 7.26992 2.74733 7.30933 2.70803C7.34874 2.66873 7.40214 2.64669 7.4578 2.64676H34.062C34.1177 2.64669 34.1711 2.66873 34.2105 2.70803C34.2499 2.74733 34.2721 2.80067 34.2722 2.85633V20.9126C34.2721 20.9401 34.2667 20.9674 34.2561 20.9928C34.2455 21.0183 34.23 21.0414 34.2105 21.0608C34.191 21.0803 34.1678 21.0957 34.1423 21.1062C34.1169 21.1167 34.0896 21.1221 34.062 21.122H20.405V23.7688H34.062C35.6375 23.7688 36.9191 22.4874 36.9191 20.9126V2.85633C36.9191 1.28144 35.6376 0 34.062 0H7.45788C5.88241 0 4.6008 1.28152 4.6008 2.85633V8.65153H7.24764V2.85633ZM38.9628 24.852H20.405V28.6119H37.2806C38.7834 28.6119 40.0013 27.3939 40.0013 25.8905C40.0013 25.3168 39.5364 24.852 38.9628 24.852Z" fill="#001F3F"/>
  <path d="M14.6589 11.2983H3.10067C1.39164 11.2983 0.00131226 12.6885 0.00131226 14.3976V31.6707C0.00131226 33.3797 1.39164 34.77 3.10067 34.77H14.6589C16.368 34.77 17.7582 33.3797 17.7582 31.6707V14.3976C17.7582 12.6885 16.368 11.2983 14.6589 11.2983ZM2.64815 14.3976C2.64829 14.2776 2.696 14.1626 2.78084 14.0778C2.86567 13.9929 2.98069 13.9452 3.10067 13.9451H14.6589C14.7788 13.9452 14.8939 13.9929 14.9787 14.0778C15.0635 14.1626 15.1113 14.2776 15.1114 14.3976V30.4396H2.64815V14.3976ZM8.87956 33.5873C8.46167 33.5873 8.11001 33.3424 7.93197 32.9947C7.85679 32.8481 7.80435 32.6882 7.80435 32.5121C7.80435 31.9181 8.28563 31.4368 8.87965 31.4368C9.47349 31.4368 9.95477 31.9181 9.95477 32.5121C9.95477 32.6882 9.90251 32.8481 9.82716 32.9947C9.64886 33.3424 9.29729 33.5873 8.87956 33.5873Z" fill="#001F3F"/>
</svg>