<svg xmlns="http://www.w3.org/2000/svg" width="40" height="36" viewBox="0 0 40 36" fill="none">
  <path d="M34.2845 20.7143C34.285 20.525 34.3605 20.3436 34.4943 20.2098C34.6281 20.076 34.8095 20.0006 34.9987 20H35.6845C35.5336 17.6554 34.6091 15.4271 33.0559 13.6643L32.5773 14.15C32.4419 14.2828 32.2598 14.3572 32.0702 14.3572C31.8805 14.3572 31.6984 14.2828 31.563 14.15C31.4292 14.0151 31.3541 13.8328 31.3541 13.6428C31.3541 13.4529 31.4292 13.2706 31.563 13.1357L32.0487 12.6571C30.286 11.1039 28.0577 10.1794 25.713 10.0286V10.7143C25.713 10.9037 25.6378 11.0854 25.5038 11.2194C25.3699 11.3533 25.1882 11.4286 24.9988 11.4286C24.8093 11.4286 24.6276 11.3533 24.4937 11.2194C24.3597 11.0854 24.2845 10.9037 24.2845 10.7143V10.0286C21.9399 10.1794 19.7115 11.1039 17.9488 12.6571L18.4345 13.1357C18.5683 13.2706 18.6434 13.4529 18.6434 13.6428C18.6434 13.8328 18.5683 14.0151 18.4345 14.15C18.2991 14.2828 18.117 14.3572 17.9273 14.3572C17.7377 14.3572 17.5556 14.2828 17.4202 14.15L16.9416 13.6643C15.3884 15.4271 14.4639 17.6554 14.313 20H14.9988C15.1882 20 15.3699 20.0752 15.5038 20.2092C15.6378 20.3431 15.713 20.5248 15.713 20.7143C15.713 20.9037 15.6378 21.0854 15.5038 21.2193C15.3699 21.3533 15.1882 21.4286 14.9988 21.4286H14.313C14.4639 23.7732 15.3884 26.0015 16.9416 27.7643L17.4202 27.2786C17.5547 27.144 17.7371 27.0685 17.9273 27.0685C18.1175 27.0685 18.3 27.144 18.4345 27.2786C18.569 27.4131 18.6445 27.5955 18.6445 27.7857C18.6445 27.9759 18.569 28.1583 18.4345 28.2928L17.9488 28.7714C19.7115 30.3246 21.9399 31.2491 24.2845 31.4V30.7143C24.2845 30.5248 24.3597 30.3431 24.4937 30.2092C24.6276 30.0752 24.8093 30 24.9988 30C25.1882 30 25.3699 30.0752 25.5038 30.2092C25.6378 30.3431 25.713 30.5248 25.713 30.7143V31.4C28.0577 31.2491 30.286 30.3246 32.0487 28.7714L31.563 28.2928C31.4285 28.1583 31.353 27.9759 31.353 27.7857C31.353 27.5955 31.4285 27.4131 31.563 27.2786C31.6975 27.144 31.88 27.0685 32.0702 27.0685C32.2604 27.0685 32.4428 27.144 32.5773 27.2786L33.0559 27.7643C34.6091 26.0015 35.5336 23.7732 35.6845 21.4286H34.9987C34.8095 21.428 34.6281 21.3526 34.4943 21.2187C34.3605 21.0849 34.285 20.9035 34.2845 20.7143ZM30.763 15.9643L26.9273 19.7928C27.0677 20.0797 27.141 20.3948 27.1416 20.7143C27.1416 21.1381 27.0159 21.5524 26.7805 21.9048C26.545 22.2572 26.2103 22.5318 25.8188 22.694C25.4272 22.8562 24.9964 22.8986 24.5807 22.816C24.165 22.7333 23.7832 22.5292 23.4835 22.2295C23.1838 21.9298 22.9798 21.548 22.8971 21.1323C22.8144 20.7166 22.8568 20.2858 23.019 19.8942C23.1812 19.5027 23.4559 19.168 23.8082 18.9326C24.1606 18.6971 24.5749 18.5714 24.9988 18.5714C25.3182 18.572 25.6333 18.6453 25.9202 18.7857L29.7488 14.95C29.8154 14.8834 29.8944 14.8306 29.9814 14.7945C30.0684 14.7585 30.1617 14.7399 30.2559 14.7399C30.3501 14.7399 30.4433 14.7585 30.5304 14.7945C30.6174 14.8306 30.6964 14.8834 30.763 14.95C30.8296 15.0166 30.8825 15.0957 30.9185 15.1827C30.9546 15.2697 30.9731 15.3629 30.9731 15.4571C30.9731 15.5513 30.9546 15.6446 30.9185 15.7316C30.8825 15.8186 30.8296 15.8977 30.763 15.9643Z" fill="#001F3F"/>
  <path d="M24.9987 21.4286C25.3932 21.4286 25.713 21.1088 25.713 20.7143C25.713 20.3198 25.3932 20 24.9987 20C24.6042 20 24.2844 20.3198 24.2844 20.7143C24.2844 21.1088 24.6042 21.4286 24.9987 21.4286Z" fill="#001F3F"/>
  <path d="M27.1415 5.87142V4.28571H27.8558C28.4241 4.28571 28.9692 4.05995 29.3711 3.65808C29.7729 3.25622 29.9987 2.71118 29.9987 2.14286C29.9987 1.57453 29.7729 1.02949 29.3711 0.627628C28.9692 0.225765 28.4241 0 27.8558 0H22.1415C21.5732 0 21.0282 0.225765 20.6263 0.627628C20.2245 1.02949 19.9987 1.57453 19.9987 2.14286C19.9987 2.71118 20.2245 3.25622 20.6263 3.65808C21.0282 4.05995 21.5732 4.28571 22.1415 4.28571H22.8558V5.87142C19.1024 6.41318 15.6935 8.35652 13.3152 11.3103C10.9369 14.2642 9.76563 18.0092 10.0372 21.7917C10.3088 25.5743 12.003 29.1136 14.7789 31.6974C17.5548 34.2811 21.2064 35.7176 24.9987 35.7176C28.791 35.7176 32.4425 34.2811 35.2184 31.6974C37.9944 29.1136 39.6886 25.5743 39.9602 21.7917C40.2317 18.0092 39.0605 14.2642 36.6822 11.3103C34.3038 8.35652 30.8949 6.41318 27.1415 5.87142ZM24.9987 32.8571C22.5971 32.8571 20.2494 32.145 18.2525 30.8107C16.2556 29.4764 14.6992 27.58 13.7802 25.3611C12.8611 23.1423 12.6206 20.7008 13.0892 18.3453C13.5577 15.9898 14.7142 13.8262 16.4124 12.128C18.1106 10.4298 20.2743 9.27328 22.6297 8.80474C24.9852 8.33621 27.4267 8.57668 29.6456 9.49574C31.8644 10.4148 33.7608 11.9712 35.0951 13.9681C36.4294 15.9649 37.1415 18.3126 37.1415 20.7143C37.137 23.9334 35.8562 27.0193 33.58 29.2956C31.3037 31.5718 28.2178 32.8526 24.9987 32.8571ZM7.85584 20H4.28441C4.09497 20 3.91329 20.0752 3.77934 20.2092C3.64538 20.3431 3.57013 20.5248 3.57013 20.7143C3.57013 20.9037 3.64538 21.0854 3.77934 21.2193C3.91329 21.3533 4.09497 21.4286 4.28441 21.4286H7.85584C8.04528 21.4286 8.22696 21.3533 8.36092 21.2193C8.49487 21.0854 8.57013 20.9037 8.57013 20.7143C8.57013 20.5248 8.49487 20.3431 8.36092 20.2092C8.22696 20.0752 8.04528 20 7.85584 20Z" fill="#001F3F"/>
  <path d="M0.713004 17.1429H8.39871C8.58815 17.1429 8.76983 17.0676 8.90379 16.9337C9.03774 16.7997 9.113 16.618 9.113 16.4286C9.113 16.2391 9.03774 16.0575 8.90379 15.9235C8.76983 15.7896 8.58815 15.7143 8.39871 15.7143H0.713004C0.523563 15.7143 0.341882 15.7896 0.207928 15.9235C0.0739732 16.0575 -0.00128174 16.2391 -0.00128174 16.4286C-0.00128174 16.618 0.0739732 16.7997 0.207928 16.9337C0.341882 17.0676 0.523563 17.1429 0.713004 17.1429ZM2.85586 12.8572H10.163C10.3524 12.8572 10.5341 12.7819 10.6681 12.648C10.802 12.514 10.8773 12.3323 10.8773 12.1429C10.8773 11.9534 10.802 11.7718 10.6681 11.6378C10.5341 11.5038 10.3524 11.4286 10.163 11.4286H2.85586C2.66642 11.4286 2.48474 11.5038 2.35078 11.6378C2.21683 11.7718 2.14157 11.9534 2.14157 12.1429C2.14157 12.3323 2.21683 12.514 2.35078 12.648C2.48474 12.7819 2.66642 12.8572 2.85586 12.8572ZM10.163 28.5714H2.85586C2.66642 28.5714 2.48474 28.6467 2.35078 28.7806C2.21683 28.9146 2.14157 29.0963 2.14157 29.2857C2.14157 29.4752 2.21683 29.6568 2.35078 29.7908C2.48474 29.9247 2.66642 30 2.85586 30H10.163C10.3524 30 10.5341 29.9247 10.6681 29.7908C10.802 29.6568 10.8773 29.4752 10.8773 29.2857C10.8773 29.0963 10.802 28.9146 10.6681 28.7806C10.5341 28.6467 10.3524 28.5714 10.163 28.5714ZM9.113 25C9.113 24.8106 9.03774 24.6289 8.90379 24.4949C8.76983 24.361 8.58815 24.2857 8.39871 24.2857H0.713004C0.523563 24.2857 0.341882 24.361 0.207928 24.4949C0.0739732 24.6289 -0.00128174 24.8106 -0.00128174 25C-0.00128174 25.1894 0.0739732 25.3711 0.207928 25.5051C0.341882 25.639 0.523563 25.7143 0.713004 25.7143H8.39871C8.58815 25.7143 8.76983 25.639 8.90379 25.5051C9.03774 25.3711 9.113 25.1894 9.113 25Z" fill="#001F3F"/>
</svg>