<svg xmlns="http://www.w3.org/2000/svg" width="41" height="40" viewBox="0 0 41 40" fill="none">
  <g clip-path="url(#clip0_22_215)">
    <path d="M40.6048 0.858125C40.4652 0.366641 40.0325 0 39.4961 0H34.8086C34.1609 0 33.6367 0.524141 33.6367 1.17188C33.6367 1.81961 34.1609 2.34375 34.8086 2.34375H37.5493L31.953 8.66234C24.4079 17.1973 13.3045 21.7086 1.94047 20.721C1.3168 20.6558 0.728517 21.1422 0.672501 21.7876C0.616408 22.4319 1.09367 22.9995 1.73906 23.0555C2.83539 23.1505 3.76047 23.1974 4.85344 23.1974C15.8043 23.1974 26.4015 18.479 33.7086 10.2141L38.3242 5.00469V5.85938C38.3242 6.50711 38.8484 7.03125 39.4961 7.03125C40.1438 7.03125 40.668 6.50711 40.668 5.85938V2.32828L40.6048 0.858125Z" fill="#001F3F"/>
    <path d="M39.4961 37.6563H38.2461V11.3094C38.2461 10.8173 37.9383 10.3778 37.4759 10.2085C37.0148 10.0425 36.4963 10.1775 36.1782 10.5541L35.4584 11.4089C34.2682 12.8211 32.9716 14.1635 31.6028 15.396C31.4807 15.5059 31.383 15.6402 31.3162 15.7902C31.2493 15.9402 31.2148 16.1027 31.2148 16.2669V37.6563H28.8711V19.9234C28.8709 19.711 28.8132 19.5026 28.7039 19.3204C28.5947 19.1382 28.4381 18.9891 28.2509 18.8889C27.8698 18.6875 27.404 18.7081 27.0458 18.9507C25.5844 19.9317 24.0619 20.8185 22.4876 21.6057C22.2929 21.7029 22.1291 21.8525 22.0147 22.0377C21.9003 22.2229 21.8397 22.4363 21.8398 22.6539V37.6563H19.4961V24.6521C19.496 24.4643 19.4509 24.2793 19.3645 24.1126C19.2781 23.9459 19.1529 23.8024 18.9995 23.6942C18.6893 23.4756 18.2887 23.4229 17.9305 23.5489C16.438 24.0809 14.9161 24.5264 13.3723 24.8832C13.1143 24.9431 12.8842 25.0886 12.7194 25.296C12.5546 25.5034 12.4649 25.7605 12.4648 26.0253V37.6563H10.1211V26.8333C10.121 26.6683 10.0861 26.5051 10.0187 26.3544C9.95122 26.2038 9.85275 26.069 9.72969 25.959C9.47906 25.737 9.13914 25.6237 8.81648 25.6695C7.30393 25.8416 5.78294 25.9291 4.26062 25.9315C3.61406 25.9327 3.08992 26.4568 3.08992 27.1034V37.6563H1.83984C1.19211 37.6563 0.667969 38.1804 0.667969 38.8282C0.667969 39.4759 1.19211 40 1.83984 40H39.4961C40.1438 40 40.668 39.4759 40.668 38.8282C40.668 38.1804 40.1438 37.6563 39.4961 37.6563Z" fill="#001F3F"/>
  </g>
  <defs>
    <clipPath id="clip0_22_215">
      <rect width="40" height="40" fill="#001F3F" transform="translate(0.667969)"/>
    </clipPath>
  </defs>
</svg>