<svg xmlns="http://www.w3.org/2000/svg" width="41" height="40" viewBox="0 0 41 40" fill="none">
  <path d="M2.39039 27.5C1.87961 28.3856 1.57936 29.3768 1.51284 30.397C1.44633 31.4172 1.61534 32.439 2.0068 33.3834C2.39826 34.3279 3.00169 35.1696 3.77042 35.8436C4.53916 36.5176 5.4526 37.0057 6.44012 37.2703C7.42764 37.5349 8.46278 37.5688 9.4655 37.3694C10.4682 37.17 11.4116 36.7427 12.2228 36.1205C13.034 35.4983 13.6913 34.6978 14.1437 33.781C14.5961 32.8642 14.8317 31.8557 14.8321 30.8333C14.8326 29.3653 14.3486 27.9381 13.4551 26.7733C12.5617 25.6084 11.3087 24.7711 9.89065 24.3912C8.47262 24.0113 6.96884 24.11 5.61269 24.6721C4.25653 25.2343 3.12383 26.2283 2.39039 27.5Z" fill="#001F3F"/>
  <path d="M12.3987 10.1666L4.89871 23.1666C6.08816 22.6595 7.37932 22.4361 8.67002 22.5141C9.96072 22.5922 11.2156 22.9695 12.3352 23.6162C13.4549 24.263 14.4088 25.1614 15.1213 26.2405C15.8338 27.3195 16.2854 28.5496 16.4404 29.8333L19.707 24.1666C13.507 13.45 12.607 12.425 12.3987 10.1666ZM38.9404 27.5C38.5154 26.7833 26.332 5.60831 26.0904 5.29998C25.0874 3.90112 23.5823 2.94438 21.89 2.62999C20.1977 2.31561 18.4494 2.66794 17.011 3.61325C15.5726 4.55857 14.5555 6.02359 14.1727 7.70172C13.7899 9.37986 14.0709 11.141 14.957 12.6166C14.8737 12.6166 14.5404 11.9 27.3904 34.1666C27.8281 34.925 28.4109 35.5898 29.1056 36.1229C29.8002 36.656 30.5931 37.0471 31.4389 37.2739C32.2846 37.5006 33.1668 37.5585 34.035 37.4443C34.9032 37.3301 35.7403 37.0461 36.4987 36.6083C37.2571 36.1706 37.9218 35.5877 38.455 34.8931C38.9881 34.1985 39.3792 33.4056 39.6059 32.5598C39.8327 31.714 39.8906 30.8319 39.7764 29.9637C39.6622 29.0955 39.3781 28.2584 38.9404 27.5Z" fill="#001F3F"/>
</svg>