<svg xmlns="http://www.w3.org/2000/svg" width="40" height="26" viewBox="0 0 40 26" fill="none">
  <path d="M39.8646 3.98929C39.8818 3.90954 39.8691 3.82623 39.8291 3.75516C39.7934 3.70652 39.7436 3.67015 39.6864 3.65108C39.6292 3.63202 39.5675 3.6312 39.5098 3.64873C39.4987 3.55895 39.4589 3.47517 39.3962 3.40994C39.3335 3.34471 39.2514 3.30154 39.1621 3.28688C39.1576 3.26106 39.1576 3.23466 39.1621 3.20884C39.1125 3.04565 39.0699 2.88246 39.0273 2.71928L38.928 2.37872C38.9071 2.25245 38.8436 2.13714 38.7481 2.05195C38.6526 1.96676 38.5308 1.91682 38.403 1.91044C38.2719 1.91346 38.1441 1.95275 38.034 2.02396H37.9915C37.9969 2.00785 37.9969 1.99041 37.9915 1.9743C37.9798 1.94659 37.9614 1.92229 37.9378 1.90368C37.9142 1.88506 37.8863 1.87274 37.8566 1.86787C37.7875 1.85895 37.7174 1.87397 37.658 1.91044C37.6192 1.93389 37.5862 1.96588 37.5616 2.004C37.537 2.04212 37.5214 2.08534 37.5161 2.13039L37.3671 2.59157L37.3245 2.71928C37.2937 2.78349 37.2777 2.85381 37.2777 2.92503C37.2777 2.99626 37.2937 3.06658 37.3245 3.13079C37.2844 3.17665 37.2573 3.23244 37.246 3.29234C37.2348 3.35225 37.2399 3.41407 37.2607 3.47135V3.50683C37.2684 3.5562 37.2684 3.60646 37.2607 3.65583C37.2536 3.69095 37.2536 3.72713 37.2607 3.76225C37.2529 3.78555 37.2409 3.8072 37.2252 3.82611C37.1875 3.8691 37.1613 3.92088 37.1489 3.97667C37.1365 4.03247 37.1383 4.09049 37.1542 4.14538C37.1177 4.14697 37.0819 4.15597 37.049 4.17182C37.016 4.18768 36.9867 4.21006 36.9627 4.23762H36.913C36.851 4.25431 36.7973 4.29312 36.762 4.34672C36.7267 4.40032 36.7123 4.465 36.7214 4.52852V4.59947L36.4305 4.67042L36.0119 4.76975C35.8881 4.78629 35.7694 4.82989 35.6643 4.89746C35.6046 4.87636 35.5395 4.87636 35.4798 4.89746V4.9826L35.4372 4.90456L35.2386 4.95422C35.1259 4.9929 35.0093 5.01908 34.8909 5.03227C34.7454 5.04427 34.605 5.09116 34.4815 5.16897C34.358 5.24678 34.255 5.35321 34.1814 5.47925C34.1081 5.57857 34.0506 5.68868 34.0111 5.80563C33.9707 5.937 33.8885 6.05159 33.777 6.132C33.7413 6.15416 33.7124 6.18579 33.6937 6.22336C33.6749 6.26094 33.6669 6.303 33.6706 6.34485C33.6762 6.38068 33.6909 6.41448 33.7132 6.44304C33.7356 6.4716 33.7649 6.49397 33.7983 6.50804C33.7956 6.51971 33.7956 6.53184 33.7983 6.54351C33.7866 6.59967 33.7866 6.65763 33.7983 6.7138C33.7158 6.74829 33.6463 6.80787 33.5996 6.88408C33.5499 6.96212 33.4719 6.98341 33.3371 7.01888C33.2536 7.03772 33.1727 7.0663 33.0959 7.10402C33.0019 7.06262 32.9005 7.04089 32.7979 7.04017C32.5807 7.05352 32.3695 7.11664 32.1806 7.22464C32.1316 7.25015 32.0889 7.28634 32.0558 7.33055C32.0226 7.37476 31.9998 7.42586 31.989 7.48006C31.9825 7.53351 31.9888 7.58774 32.0073 7.63831C32.0258 7.68888 32.056 7.73434 32.0955 7.77096C32.1522 7.82062 32.1664 7.849 32.0955 7.93414C32.0072 8.04823 31.9073 8.15285 31.7975 8.24633C31.7651 8.27581 31.7365 8.30917 31.7123 8.34566C31.693 8.35069 31.6748 8.35957 31.659 8.37176C31.6432 8.38394 31.6299 8.3992 31.6201 8.41661C31.5938 8.45324 31.5565 8.48057 31.5137 8.49465C31.4574 8.51663 31.4066 8.55052 31.3647 8.59399C31.316 8.63615 31.2752 8.68659 31.2441 8.74298H31.1802L31.0241 8.82103C30.8355 8.88499 30.6716 9.0066 30.5558 9.16868C30.5133 9.23254 30.4423 9.24673 30.3217 9.26801C30.2058 9.27624 30.0938 9.31279 29.9953 9.37444H29.8747C29.8325 9.36686 29.7917 9.35248 29.7541 9.33187C29.6831 9.289 29.6067 9.2556 29.5271 9.23254C29.5489 9.19133 29.5679 9.14866 29.5838 9.10483C29.6271 8.99508 29.658 8.88086 29.676 8.76427C29.7471 8.69867 29.807 8.622 29.8534 8.53722C29.9063 8.44937 29.9447 8.35353 29.9669 8.25342C29.9669 7.79224 30.0024 6.83441 29.2574 6.72089C29.2902 6.48565 29.2667 6.24599 29.189 6.02155C29.1114 5.79711 28.9816 5.59425 28.8104 5.42959C28.8312 5.40557 28.8459 5.37694 28.8533 5.34608C28.8607 5.31522 28.8606 5.28303 28.853 5.25221C28.8426 5.21868 28.824 5.18825 28.7989 5.16364C28.7739 5.13902 28.7431 5.121 28.7094 5.11116C28.6757 5.10133 28.64 5.09999 28.6057 5.10727C28.5713 5.11455 28.5393 5.13022 28.5125 5.15288C28.5125 5.15288 28.4628 5.15288 28.3918 5.05355C28.3525 4.99378 28.2987 4.94489 28.2355 4.91141C28.1722 4.87793 28.1015 4.86093 28.03 4.86199H27.81C27.812 4.83127 27.812 4.80046 27.81 4.76975C27.7746 4.60656 27.6752 4.57109 27.6043 4.57109C27.5691 4.5647 27.5331 4.5647 27.4979 4.57109C27.3832 4.6257 27.2614 4.66392 27.136 4.68461C27.0367 4.70406 26.9393 4.73256 26.8451 4.76975C26.7369 4.80301 26.6407 4.86712 26.5684 4.95422C26.4457 4.91815 26.3151 4.91815 26.1924 4.95422C26.1069 4.83242 25.9853 4.74059 25.8447 4.6917C25.7979 4.66997 25.7473 4.6579 25.6957 4.65623L25.7738 4.57818C25.8439 4.51785 25.9059 4.44869 25.9582 4.37243C25.9719 4.3487 25.9792 4.32178 25.9792 4.29438C25.9792 4.26698 25.9719 4.24006 25.9582 4.21634C25.9457 4.18996 25.9268 4.16709 25.9033 4.14976C25.8798 4.13243 25.8523 4.12118 25.8234 4.117H25.7667C25.5789 4.12709 25.4028 4.21131 25.2771 4.35114L25.2062 4.415C24.8802 4.66143 24.5309 4.8753 24.1632 5.05355L24.0213 5.01098C24.0352 4.97338 24.0365 4.93227 24.025 4.89386C24.0135 4.85545 23.9898 4.82185 23.9574 4.79813C23.9156 4.77313 23.8678 4.75992 23.8191 4.75992C23.7704 4.75992 23.7225 4.77313 23.6807 4.79813L23.475 4.89036C23.7577 4.58625 24.1009 4.34458 24.4825 4.18086C24.544 4.15364 24.6013 4.1178 24.6528 4.07443L24.7024 4.03896C24.7252 4.02432 24.7442 4.00445 24.7578 3.981C24.7713 3.95756 24.7791 3.93121 24.7805 3.90415C24.7805 3.87761 24.774 3.85145 24.7617 3.82796C24.7493 3.80447 24.7314 3.78435 24.7095 3.76935C24.6674 3.74506 24.6197 3.73227 24.5712 3.73227C24.5226 3.73227 24.4749 3.74506 24.4328 3.76935C24.3391 3.71216 24.2302 3.68494 24.1206 3.6913H23.9149C23.8943 3.66388 23.8675 3.64183 23.8366 3.62701C23.8057 3.61218 23.7717 3.60503 23.7375 3.60616C23.6818 3.60742 23.6276 3.62466 23.5814 3.65583H23.5388C23.4805 3.69255 23.4187 3.72344 23.3544 3.74806C23.2739 3.70991 23.1997 3.65966 23.1344 3.59906H23.0918C23.0717 3.57523 23.0468 3.55595 23.0186 3.54249C22.9905 3.52903 22.9598 3.52172 22.9286 3.52102C22.8902 3.52048 22.8527 3.53299 22.8222 3.55649C22.7343 3.42913 22.603 3.33806 22.4529 3.30021C22.3029 3.26236 22.1441 3.28032 22.0063 3.35074C21.9637 3.35074 22.0063 3.35074 22.0063 3.35074C21.8543 3.28696 21.6944 3.244 21.5309 3.22303H21.46C21.4828 3.14424 21.4828 3.06058 21.46 2.9818C21.4577 2.95346 21.4577 2.92499 21.46 2.89665C21.4609 2.85879 21.4543 2.82112 21.4404 2.78587C21.4266 2.75061 21.4058 2.71848 21.3794 2.69137C21.353 2.66426 21.3213 2.64272 21.2864 2.62802C21.2515 2.61331 21.214 2.60575 21.1762 2.60576C21.1406 2.60702 21.1057 2.6159 21.0739 2.63182C21.0421 2.64773 21.014 2.6703 20.9917 2.69799C20.9749 2.73598 20.9662 2.77706 20.9662 2.81861C20.9662 2.86015 20.9749 2.90124 20.9917 2.93922H18.5794C18.0543 2.93922 17.4584 2.93922 16.8553 2.88956C16.3285 2.9252 15.7999 2.9252 15.2731 2.88956L14.5636 2.85408C13.2879 2.78006 12.0205 2.59969 10.7748 2.31486L10.2427 2.19424C10.0866 2.15167 9.92341 2.1091 9.76732 2.08072H8.83787C8.47133 2.06547 8.10627 2.02518 7.74523 1.96011C7.6008 1.93248 7.45853 1.89454 7.31952 1.84659L7.15634 1.78273C6.76788 1.63276 6.36963 1.50949 5.96437 1.41379C5.48524 1.32386 5.02006 1.17119 4.58083 0.959704L3.67976 0.718472H3.59462C3.5749 0.717776 3.55524 0.721203 3.53692 0.728533C3.51859 0.735863 3.502 0.746936 3.48819 0.761043C3.46738 0.776241 3.45111 0.796819 3.44111 0.820568C3.43111 0.844318 3.42776 0.870342 3.43143 0.895848C3.43488 0.912224 3.43488 0.929138 3.43143 0.945514C3.42124 0.992302 3.42305 1.04091 3.4367 1.08681C3.45034 1.13271 3.47538 1.17441 3.50948 1.20803C3.46635 1.25512 3.43798 1.31384 3.42789 1.37689C3.4178 1.43995 3.42644 1.50458 3.45272 1.56278C3.42794 1.54071 3.39899 1.52382 3.36758 1.51312C3.07272 1.39579 2.7919 1.24587 2.53036 1.06613C2.5151 1.00337 2.48116 0.946711 2.43302 0.903642C2.38488 0.860573 2.32482 0.833116 2.26075 0.824898C2.21264 0.825727 2.16581 0.840517 2.12594 0.867468C2.07665 0.911439 2.03867 0.966631 2.0152 1.02838C1.99174 1.09012 1.98349 1.15661 1.99114 1.22222C1.9917 1.30511 2.00857 1.38708 2.0408 1.46345C2.05621 1.52878 2.05621 1.59679 2.0408 1.66211C2.02362 1.75593 2.02362 1.8521 2.0408 1.94592C2.05614 2.00405 2.05614 2.06516 2.0408 2.12329C2.02849 2.15124 2.02213 2.18144 2.02213 2.21198C2.02213 2.24252 2.02849 2.27272 2.0408 2.30067V2.33615C2.01393 2.35833 1.99419 2.38795 1.98404 2.42129C1.97693 2.46328 1.98106 2.5064 1.99601 2.54628C2.01097 2.58616 2.03621 2.62137 2.06918 2.64833V2.6909C2.02647 2.69174 1.98508 2.70585 1.95075 2.73128C1.91643 2.7567 1.89087 2.79219 1.87762 2.8328C1.86366 2.8628 1.85642 2.89549 1.85642 2.92858C1.85642 2.96167 1.86366 2.99436 1.87762 3.02437C1.84524 3.06042 1.82318 3.10454 1.81376 3.15208C1.73267 3.43409 1.63554 3.71125 1.52286 3.9822C1.44482 4.18086 1.35258 4.415 1.28163 4.64204C1.17686 4.91892 1.0412 5.18311 0.877214 5.42959C0.813358 5.54311 0.742407 5.65663 0.678552 5.77725C0.624624 5.84955 0.586625 5.93246 0.567058 6.02051C0.547491 6.10856 0.5468 6.19975 0.565031 6.28809C0.544057 6.31523 0.529502 6.34676 0.522461 6.38033V6.4158C0.490646 6.48476 0.47417 6.5598 0.47417 6.63575C0.47417 6.71169 0.490646 6.78674 0.522461 6.8557C0.495971 6.97246 0.495971 7.09368 0.522461 7.21045C0.523272 7.34539 0.494465 7.47886 0.438073 7.60145C0.381681 7.72404 0.299077 7.83276 0.196088 7.91995C0.110889 8.00138 0.049885 8.10479 0.019831 8.21875C-0.010223 8.3327 -0.00815489 8.45275 0.0258066 8.5656C0.0442064 8.63791 0.0728785 8.7072 0.110947 8.77136H0.132233C0.147796 8.91215 0.171486 9.05192 0.203183 9.18997C0.170266 9.28444 0.146506 9.38185 0.132233 9.48087V9.61567C0.108262 9.73405 0.113156 9.85647 0.146501 9.97255C0.179846 10.0886 0.24066 10.195 0.323799 10.2826C0.342685 10.3045 0.359323 10.3283 0.373465 10.3536L0.416035 10.5806C0.397372 10.6405 0.393432 10.704 0.404548 10.7658C0.415664 10.8275 0.441509 10.8857 0.47989 10.9354C0.500772 11.081 0.529191 11.2255 0.565031 11.3682C0.544605 11.5125 0.572018 11.6595 0.643076 11.7868V11.9996C0.64963 12.1237 0.66624 12.2471 0.692742 12.3686C0.676215 12.4291 0.674022 12.4927 0.686337 12.5543C0.698652 12.6159 0.725137 12.6737 0.763692 12.7233C0.813358 12.9149 0.870118 13.0993 0.933974 13.2838C0.997829 13.4683 1.02621 13.5534 1.06878 13.6882C1.11589 13.8593 1.17275 14.0275 1.23906 14.192C1.23816 14.2085 1.23816 14.2251 1.23906 14.2417C1.21095 14.3 1.2048 14.3666 1.22174 14.4291C1.23867 14.4917 1.27757 14.546 1.3313 14.5822C1.41092 14.6428 1.49948 14.6907 1.59381 14.7241L1.79248 14.9015C1.92473 14.9939 2.0648 15.0746 2.21108 15.1427H2.26784C2.35034 15.2434 2.46608 15.3114 2.59422 15.3343L2.64388 15.3698L2.69355 15.4123C2.70899 15.4925 2.74175 15.5683 2.78955 15.6345C2.83734 15.7007 2.89902 15.7556 2.97026 15.7955L3.03411 15.838C3.1843 15.959 3.30099 16.1164 3.37303 16.2952C3.44508 16.4741 3.47007 16.6685 3.44562 16.8597C3.43885 16.8994 3.44039 16.9401 3.45016 16.9792C3.45994 17.0183 3.47772 17.0549 3.50238 17.0868C3.52907 17.1166 3.56193 17.1403 3.59868 17.1563C3.63543 17.1722 3.6752 17.18 3.71524 17.179L4.16932 17.2287H4.30413L5.31162 17.328C5.31677 17.3974 5.34347 17.4634 5.388 17.5168C5.43253 17.5702 5.49265 17.6084 5.55995 17.626L6.97896 18.4774L7.94389 19.045C8.05737 19.1126 8.18251 19.1583 8.31283 19.1798L8.71725 19.2437C9.00105 19.2862 9.29905 19.3288 9.58285 19.3856C9.63628 19.4 9.6926 19.4 9.74603 19.3856C9.79264 19.397 9.84132 19.397 9.88794 19.3856L10.2924 19.4352C10.3379 19.4486 10.3861 19.4498 10.4322 19.4386C10.4783 19.4273 10.5206 19.4042 10.5549 19.3714C10.5797 19.3434 10.5987 19.3109 10.6109 19.2756C10.623 19.2403 10.6281 19.2029 10.6258 19.1656C10.6258 19.1656 10.6258 19.1656 10.6258 19.123V19.0521L11.3353 19.1301H11.6191C11.6634 19.141 11.7097 19.141 11.7539 19.1301C11.7539 19.1301 11.8036 19.1301 11.8391 19.2366C11.869 19.2899 11.9047 19.3399 11.9455 19.3856L12.1938 19.6694C12.3797 19.912 12.5968 20.1291 12.8395 20.315C12.9033 20.3576 12.9246 20.4214 12.9601 20.535C12.9798 20.6104 13.0059 20.684 13.0381 20.7549C13.0089 20.8652 13.0136 20.9817 13.0515 21.0893C13.0895 21.1969 13.159 21.2905 13.251 21.358C13.5257 21.5964 13.8227 21.8079 14.1379 21.9895C14.2111 22.0353 14.298 22.054 14.3836 22.0423C14.4691 22.0307 14.5479 21.9894 14.6061 21.9256C14.6997 21.8319 14.7702 21.7178 14.8119 21.5921C14.8242 21.5503 14.8408 21.5099 14.8616 21.4715C14.8589 21.4503 14.8589 21.4289 14.8616 21.4077H14.9467C15.5782 21.3438 16.0819 22.0604 16.2664 22.3726C16.3334 22.4805 16.4093 22.5825 16.4934 22.6777C16.6282 22.9189 16.7914 23.1459 16.9191 23.3304L16.9617 23.3872C16.9789 23.4142 17.0005 23.4382 17.0256 23.4581C17.0378 23.5045 17.0544 23.5497 17.0752 23.5929C17.1107 23.671 17.1533 23.7419 17.1958 23.82C17.2643 24.084 17.3694 24.3372 17.508 24.5721C17.5224 24.6063 17.5437 24.6372 17.5705 24.6628C17.5974 24.6885 17.6292 24.7083 17.6641 24.7211C17.7769 24.7642 17.8861 24.8164 17.9905 24.8771C18.1772 24.985 18.3813 25.0594 18.5936 25.0971C18.7088 25.1028 18.8198 25.1423 18.9128 25.2106C18.958 25.2559 19.0192 25.2814 19.0831 25.2816C19.1242 25.2784 19.1639 25.2651 19.1986 25.2428C19.2333 25.2205 19.2619 25.19 19.2818 25.1538C19.3142 25.141 19.3427 25.1198 19.3643 25.0924C19.3859 25.065 19.3999 25.0324 19.405 24.9979C19.41 24.9634 19.4059 24.9282 19.393 24.8957C19.3801 24.8633 19.3588 24.8349 19.3315 24.8133C19.2715 24.7161 19.2328 24.6073 19.2179 24.494L19.2889 24.3095V24.1818C19.3271 23.934 19.4062 23.6942 19.523 23.4723L19.6224 23.2453C19.7095 23.0802 19.853 22.9518 20.0268 22.8834C20.1428 22.8251 20.2502 22.7511 20.3461 22.6635C20.6102 22.6033 20.8545 22.4762 21.0556 22.2945L21.1549 22.2094C21.2334 22.161 21.3002 22.0958 21.3505 22.0185C21.4008 21.9412 21.4333 21.8538 21.4458 21.7624C21.4979 21.787 21.5549 21.7998 21.6125 21.7998C21.6702 21.7998 21.7271 21.787 21.7792 21.7624C21.8948 21.7022 22.0194 21.6614 22.1482 21.6418H22.3752L22.6732 21.585C22.6933 21.576 22.7151 21.5714 22.7371 21.5714C22.7591 21.5714 22.7809 21.576 22.8009 21.585C23.0444 21.6924 23.3083 21.7457 23.5743 21.7411H23.6665C23.6949 21.7383 23.7222 21.7283 23.7457 21.7122C23.7693 21.6961 23.7884 21.6743 23.8013 21.6489C23.8099 21.6287 23.8144 21.607 23.8144 21.585C23.8144 21.5631 23.8099 21.5414 23.8013 21.5212H23.9503C23.9606 21.5788 23.9914 21.6307 24.0371 21.6672C24.0828 21.7038 24.1402 21.7225 24.1987 21.7198C24.2412 21.7198 24.2554 21.7198 24.3264 21.8263L24.3902 21.9114C24.4761 21.9938 24.5905 22.0398 24.7095 22.0398C24.8285 22.0398 24.9429 21.9938 25.0288 21.9114H25.0714C25.0927 21.9499 25.1234 21.9825 25.1606 22.006C25.1977 22.0296 25.2403 22.0434 25.2842 22.0462C25.4261 22.0462 25.4829 21.9114 25.5042 21.8475C25.5084 21.8313 25.5084 21.8142 25.5042 21.7979L25.6461 21.8688C25.7454 21.9114 25.7809 21.9256 25.7951 21.9682C25.8045 21.9998 25.8215 22.0286 25.8445 22.0523C25.8674 22.076 25.8958 22.0938 25.9271 22.1042C25.9584 22.1147 25.9917 22.1174 26.0243 22.1123C26.0569 22.1071 26.0878 22.0942 26.1143 22.0746L26.2137 22.0249L26.3272 21.9611C26.3532 21.9478 26.3751 21.9274 26.3901 21.9023C26.4052 21.8772 26.4129 21.8484 26.4123 21.8192C26.4177 21.796 26.418 21.7719 26.4131 21.7486C26.4082 21.7253 26.3982 21.7034 26.3839 21.6844L26.2137 21.6134C26.1174 21.5793 26.0266 21.5315 25.944 21.4715C25.9857 21.4351 26.0237 21.3947 26.0576 21.3509C26.0779 21.3198 26.1045 21.2932 26.1356 21.2729C26.2633 21.2161 26.3059 21.0884 26.242 20.9252C26.2366 20.8932 26.2218 20.8636 26.1995 20.8401C26.33 20.7791 26.476 20.7593 26.6181 20.7833C26.6369 20.7879 26.6567 20.7854 26.6738 20.7762C26.6908 20.7671 26.7038 20.7519 26.7103 20.7336H26.8026C26.8387 20.7491 26.8788 20.7526 26.9171 20.7437C26.9554 20.7348 26.9898 20.7138 27.0154 20.684C27.05 20.7398 27.1025 20.7824 27.1644 20.8046C27.2209 20.8297 27.284 20.8356 27.3442 20.8215C27.4044 20.8074 27.4584 20.7741 27.4979 20.7265C27.5253 20.7369 27.5556 20.7369 27.583 20.7265C27.6322 20.7195 27.6786 20.6992 27.7173 20.668C27.756 20.6368 27.7856 20.5958 27.803 20.5492C27.8428 20.576 27.8897 20.5903 27.9378 20.5903C27.9858 20.5903 28.0327 20.576 28.0726 20.5492C28.1418 20.5487 28.2099 20.5317 28.2712 20.4995C28.2857 20.5246 28.3063 20.5456 28.3311 20.5605C28.356 20.5754 28.3842 20.5837 28.4131 20.5846C28.4506 20.5931 28.4866 20.6074 28.5196 20.6272C28.5732 20.6631 28.6337 20.6873 28.6973 20.6983C28.7608 20.7093 28.826 20.7068 28.8885 20.6911C28.9006 20.7383 28.9227 20.7823 28.9533 20.8203C28.9839 20.8582 29.0223 20.8892 29.0659 20.911C29.0668 20.9646 29.0842 21.0166 29.1155 21.06C29.1243 21.0705 29.1351 21.079 29.1473 21.0851C29.1595 21.0912 29.1729 21.0948 29.1865 21.0955C29.3652 21.1222 29.5353 21.1902 29.6831 21.2941C30.0095 21.4786 30.3927 21.6844 30.7971 21.3438H31.1234L31.2512 21.3864C31.3354 21.4668 31.3928 21.5713 31.4157 21.6855C31.4385 21.7998 31.4257 21.9182 31.3789 22.0249C31.3372 22.1419 31.3372 22.2698 31.3789 22.3868C31.3823 22.4174 31.3823 22.4484 31.3789 22.479C31.3825 22.5334 31.4039 22.5851 31.4398 22.6262C31.4757 22.6672 31.5241 22.6953 31.5775 22.7061C31.569 22.7362 31.569 22.7681 31.5775 22.7983C31.5802 22.8313 31.5906 22.8633 31.6079 22.8917C31.6251 22.92 31.6487 22.9439 31.6769 22.9615C31.7345 23.0126 31.7804 23.0755 31.8117 23.1459L31.8755 23.2737C31.8755 23.3162 32.0174 23.4794 32.1735 23.4794C32.1754 23.5264 32.1886 23.5723 32.2121 23.6131C32.2356 23.6539 32.2686 23.6883 32.3083 23.7136C32.4147 23.7774 32.4502 23.8909 32.507 24.0257V24.0754C32.5228 24.1366 32.5586 24.1908 32.6087 24.2294C32.6589 24.268 32.7204 24.2887 32.7837 24.2883C32.8759 24.2883 32.9398 24.3379 33.0249 24.4727C33.0792 24.5678 33.1607 24.6445 33.2591 24.6927C33.2586 24.7056 33.2626 24.7182 33.2704 24.7285C33.2781 24.7388 33.2891 24.7462 33.3016 24.7494H33.479C33.4865 24.7685 33.4991 24.7851 33.5153 24.7976C33.5316 24.8101 33.5509 24.818 33.5712 24.8204C33.717 24.808 33.8579 24.7618 33.9827 24.6856H34.0537C34.0971 24.668 34.1362 24.6411 34.1681 24.6068C34.1999 24.5725 34.2239 24.5315 34.2382 24.4869C34.2398 24.4241 34.2225 24.3623 34.1885 24.3095C34.1885 24.3095 34.1885 24.2528 34.1885 24.2457C34.2551 24.1852 34.2997 24.1042 34.3151 24.0155C34.3306 23.9268 34.316 23.8356 34.2736 23.7561C34.3064 23.5732 34.2979 23.3853 34.2488 23.2061C34.1997 23.0269 34.1112 22.8609 33.9898 22.7202C33.9303 22.6516 33.8846 22.5721 33.855 22.4861C33.855 22.4861 33.855 22.4861 33.855 22.4435C33.8227 22.3232 33.7561 22.2147 33.6635 22.1314C33.6312 22.1025 33.607 22.0657 33.5933 22.0247C33.5796 21.9836 33.5769 21.9397 33.5854 21.8972C33.6003 21.7713 33.5812 21.6436 33.5301 21.5276C33.4789 21.4115 33.3976 21.3113 33.2945 21.2374C33.2027 21.1536 33.1196 21.0609 33.0462 20.9607C32.9885 20.8865 32.927 20.8154 32.8617 20.7478C32.7916 20.6552 32.7497 20.5444 32.7411 20.4285C32.7269 20.281 32.6757 20.1395 32.5921 20.017C32.5954 20.0006 32.5954 19.9838 32.5921 19.9674C32.6018 19.9171 32.6012 19.8653 32.5902 19.8153C32.5792 19.7653 32.5582 19.718 32.5283 19.6765C32.539 19.6226 32.539 19.5671 32.5283 19.5133C32.455 19.2169 32.4928 18.9039 32.6347 18.6335C32.6347 18.5696 32.6985 18.5058 32.7269 18.4348C32.7302 18.4113 32.7302 18.3874 32.7269 18.3639C32.7269 18.3213 32.7695 18.2858 32.7908 18.2362L32.8546 18.1226C32.8546 18.0659 32.9114 18.002 32.9398 17.9878C33.1649 17.8538 33.3624 17.678 33.5216 17.4699C33.6067 17.3777 33.6989 17.2712 33.7912 17.1861C33.8189 17.1584 33.8402 17.125 33.8537 17.0883C33.8671 17.0515 33.8725 17.0123 33.8692 16.9732C33.8642 16.8836 33.8833 16.7942 33.9245 16.7143C33.9656 16.6345 34.0274 16.5671 34.1034 16.5192C34.1301 16.5016 34.154 16.48 34.1743 16.4553C34.2511 16.448 34.3271 16.4338 34.4014 16.4127H34.4652C34.5343 16.4028 34.5977 16.369 34.6443 16.3171C34.691 16.2653 34.718 16.1987 34.7206 16.1289C34.7298 16.0416 34.7565 15.9569 34.7992 15.8801C34.8419 15.8033 34.8996 15.7359 34.969 15.6819L35.0115 15.6252C35.0619 15.5507 35.1269 15.4871 35.2025 15.4383C35.2781 15.3895 35.3628 15.3566 35.4514 15.3414C35.541 15.3274 35.6221 15.2802 35.6786 15.2093C35.7351 15.1383 35.7629 15.0487 35.7565 14.9583C35.756 14.9318 35.7493 14.9059 35.7369 14.8825C35.7246 14.8591 35.707 14.8389 35.6856 14.8234C35.6632 14.8096 35.6374 14.8023 35.6111 14.8023C35.5848 14.8023 35.559 14.8096 35.5366 14.8234C35.5401 14.7952 35.5401 14.7666 35.5366 14.7383C35.6229 14.7303 35.706 14.7016 35.7789 14.6547C35.8517 14.6078 35.9122 14.544 35.9552 14.4687C36.004 14.4006 36.0343 14.3209 36.043 14.2376C36.0517 14.1542 36.0386 14.07 36.0048 13.9933C35.9871 13.9535 35.9583 13.9195 35.9218 13.8956C35.8853 13.8717 35.8427 13.8588 35.7991 13.8585C35.8365 13.833 35.864 13.7954 35.8771 13.7521C35.8897 13.7066 35.8867 13.6581 35.8688 13.6145C35.8508 13.5708 35.8188 13.5343 35.7778 13.5109C35.7778 13.5109 35.7423 13.5109 35.7139 13.4612C35.7385 13.3973 35.7385 13.3265 35.7139 13.2625C35.7039 13.1859 35.667 13.1154 35.6099 13.0634C35.5527 13.0114 35.479 12.9814 35.4018 12.9787H35.3947V12.8865C35.3916 12.842 35.3742 12.7996 35.345 12.7659L35.3876 12.7304C35.3947 12.748 35.4053 12.7639 35.4187 12.7773C35.4321 12.7907 35.4481 12.8013 35.4656 12.8084C35.4991 12.8229 35.5367 12.8251 35.5717 12.8147C35.6067 12.8044 35.6369 12.7821 35.6572 12.7517C35.6747 12.7445 35.6895 12.7321 35.6998 12.7162C36.0998 12.2225 36.3178 11.6062 36.317 10.9708C36.3169 10.9244 36.3026 10.879 36.276 10.841C36.2493 10.8029 36.2117 10.7739 36.168 10.758H36.1255C36.1659 10.6804 36.2134 10.6068 36.2674 10.538L36.3525 10.4103C36.4078 10.3218 36.444 10.2227 36.4589 10.1194C36.5184 9.92426 36.5993 9.73628 36.7002 9.55891L36.7356 9.50925L36.8421 9.36025L36.9981 9.13321L37.0407 9.09064C37.1259 9.0055 37.2252 8.90617 37.289 8.82812C37.3947 8.78796 37.4874 8.7199 37.5574 8.63119C37.6273 8.54247 37.6719 8.43643 37.6864 8.32437C37.7322 8.29857 37.7712 8.26206 37.7999 8.21795C37.8391 8.21593 37.8765 8.20095 37.9063 8.17538L37.9986 8.08314C38.0468 8.03184 38.099 7.98439 38.1546 7.94124C38.1869 7.95156 38.2217 7.95156 38.254 7.94124C38.2866 7.93934 38.3186 7.93082 38.3479 7.91618C38.3771 7.90154 38.4031 7.8811 38.4243 7.8561C38.4243 7.82062 38.4881 7.79934 38.5094 7.79934C38.5651 7.79315 38.6184 7.77299 38.6643 7.74075C38.7102 7.70851 38.7472 7.66521 38.7719 7.61487C38.7888 7.56055 38.7918 7.50287 38.7806 7.4471C38.7695 7.39133 38.7445 7.33924 38.7081 7.29559C38.6924 7.27267 38.6711 7.25412 38.6463 7.24171C38.6215 7.22929 38.5939 7.22342 38.5662 7.22464C38.5432 7.22508 38.5206 7.23036 38.4998 7.24014C38.479 7.24992 38.4605 7.26398 38.4455 7.2814C38.4455 7.34525 38.3746 7.37363 38.3604 7.37363C38.3462 7.37363 38.3036 7.37364 38.2611 7.28849V7.25302C38.2305 7.19744 38.1889 7.14866 38.1389 7.10964C38.0889 7.07061 38.0315 7.04215 37.9702 7.02598C37.9947 6.99906 38.014 6.96777 38.0269 6.93374C38.0394 6.90836 38.046 6.88045 38.046 6.85215C38.046 6.82385 38.0394 6.79593 38.0269 6.77056C38.0298 6.75651 38.0298 6.74203 38.0269 6.72798V6.54351C38.0468 6.42112 38.0825 6.30185 38.1334 6.18876C38.1334 6.1249 38.183 6.05395 38.2114 5.97591C38.2282 5.94295 38.237 5.90648 38.237 5.86948C38.237 5.83248 38.2282 5.79601 38.2114 5.76306C38.3281 5.7248 38.4365 5.66459 38.5307 5.58568L38.6087 5.52892C38.6828 5.49402 38.7454 5.43884 38.7894 5.36976C38.8333 5.30069 38.8568 5.22056 38.8571 5.13869V5.08193C38.928 5.08016 38.9965 5.05582 39.0526 5.01244C39.1088 4.96905 39.1496 4.90889 39.1692 4.8407C39.2496 4.85013 39.331 4.83645 39.4039 4.80126C39.4768 4.76608 39.5381 4.71085 39.5807 4.64204C39.6028 4.61458 39.6265 4.58852 39.6517 4.56399C39.7049 4.53044 39.7488 4.48409 39.7794 4.42919C39.8305 4.42689 39.8793 4.40743 39.9179 4.37395C39.9565 4.34047 39.9827 4.29493 39.9923 4.24471C40.0048 4.19391 39.9989 4.14028 39.9755 4.09346C39.9521 4.04664 39.9128 4.00971 39.8646 3.98929ZM35.2599 12.2479V12.4182C35.2557 12.3615 35.2557 12.3046 35.2599 12.2479ZM35.1747 12.0564C35.177 12.0399 35.177 12.0232 35.1747 12.0067C35.182 11.9812 35.182 11.9542 35.1747 11.9287H35.2102C35.2037 11.9805 35.2037 12.0329 35.2102 12.0848C35.2141 12.1225 35.2141 12.1605 35.2102 12.1983C35.2181 12.1703 35.219 12.1407 35.2129 12.1122C35.2067 12.0838 35.1936 12.0573 35.1747 12.0351V12.0564Z" fill="#001f3f"/>
</svg>